/* XPM */
static char *DuckieTV[] = {
/* columns rows colors chars-per-pixel */
"64 64 35 1 ",
"  c #2A2A2A",
". c #313131",
"X c #3E3E3E",
"o c gray26",
"O c #444444",
"+ c #494949",
"@ c gray29",
"# c #4B4B4B",
"$ c gray34",
"% c #585858",
"& c gray35",
"* c #626262",
"= c #646464",
"- c #656565",
"; c #6C6C6C",
": c gray43",
"> c #727272",
", c #777777",
"< c gray47",
"1 c gray48",
"2 c #808080",
"3 c #898989",
"4 c gray58",
"5 c gray62",
"6 c #C5C5C5",
"7 c gray79",
"8 c gray81",
"9 c gray83",
"0 c #DADADA",
"q c gray88",
"w c #EAEAEA",
"e c gray96",
"r c #F6F6F6",
"t c white",
"y c None",
/* pixels */
"yyyyyyyyyyyyyyyyyyyyyyyyyyyyyyyyyyyyyyyyyyyyyyyyyyyyyyyyyyyyyyyy",
"yyyyyyyyyyyyyyyyyyyyyyyyyyyyyyyyyyyyyyyyyyyyyyyyyyyyyyyyyyyyyyyy",
"yyyyyyyyyyyyyyyyyyyyyyyyyyyyyyyyyyyyyyyyyyyyyyyyyyyyyyyyyyyyyyyy",
"yyyyyyyyyyyyyyyyyyyyyyyyyyyyyyyyyyyyyyyyyyyyyyyyyyyyyyyyyyyyyyyy",
"yyyyyyyyyyyyyyyyyyyyyyyyyyyyyyyyyyyttttttyyyyyyyyyyyyyyyyyyyyyyy",
"yyyyyyyyyyyyyyyyyyyyyyyyyyyyyyyyyttttttttttyyyyyyyyyyyyyyyyyyyyy",
"yyyyyyyyyyyyyyyyyyyyyyyyyyyyyyyytttttttttttttyyyyyyyyyyyyyyyyyyy",
"yyyyyyyyyyyyyyyyyyyyyyyyyyyyyyyttttyyyyyytttttyyyyyyyyyyyyyyyyyy",
"yyyyyyyyyyyyyyyyyyyyyyyyyyyyyyttttyyyyyyyyytttyyyyyyyyyyyyyyyyyy",
"yyyyyyyyyyyyyyyyyyyyyyyyyyyyyytttyyyyyyyyyyttttyyyyyyyyyyyyyyyyy",
"yyyyyyyyyyyyyyyyyyyyyyyyyyyyyttttyyyyyyyyyyytttyyyyyyyyyyyyyyyyy",
"yyyyyyyyyyyyyyyyyyyyyyyyyyyyytttyyyyyyyyyyyytttyyyyyyyyyyyyyyyyy",
"yyyyyyyyyyyyyyyyyyyyyyyyyyyyytttyyyyyyttttyytttyyyyyyyyyyyyyyyyy",
"yyyyyyyyyyyyyyyyyyyyyyyyyyyyytttyyyyyyttytyytttyyyyyyyyyyyyyyyyy",
"yyyyyyyyyyyyyyyyyyyyyyyyyyyyytttyyyyyyttttyytttyyyyyyyyyyyyyyyyy",
"yyyyyyyyyyyyyyyyyyyyyyyyyyyyytttyyyyyyytttyytttyyyyyyyyyyyyyyyyy",
"yyyyyyyyyyyyyyyyyyyyyyyyyyyyytttyyyyyyyyyyyytttyyyyyyyyyyyyyyyyy",
"yyyyyyyyyyyyyyyyyyyyyyyyyyyyytttyyyyyyyyyyyytttyyyyyyyyyyyyyyyyy",
"yyyyyyyyyyyyyyyyyyyyyyyyyyyyytttyyyyyyyyyyyytttttyyyyyyyyyyyyyyy",
"yyyyyyyyyyyyyyyyyyyyyyyyyyyyytttyyyyyyyyyyyytttttttttyyyyyyyyyyy",
"yyyyyyyyyyyyyyyyyyyyyyyyyyyyytttyyyyyyyyyyyytttyyyyttttttyyyyyyy",
"yyyyyyyyyyyyyyyyyyyyyyyyyyyyytttyyyyyyyyyyyytttyyyyyyyytttttyyyy",
"yyyyyyyyyyyyyyyyyyyyyyyyyyyyytttyyyyyyyyyyyytttyyyyyyyytttttyyyy",
"yyyyyyyyytyyyyyyyyyyyyyyyyyyytttyyyyyyyyyyyytttyyyyttttttyyyyyyy",
"yyyyyyyyyttttyyyyyyyyyyyyyyyytttyyyyyyyyyyyyttttttttttyyyyyyyyyy",
"yyyyyyyyyyttttttttttttttttttttttttttttttttttttttttyyyyyyyyyyyyyy",
"yyyyyyyyyytttttttttttttttttttttttttttttttttttttyyyyyyyyyyyyyyyyy",
"yyyyyyyyyytttttttttttttttttttttttttttttttttttttyyyyyyyyyyyyyyyyy",
"yyyyyyyyyyyttttttttttttttttttttttttttttttttttttyyyyyyyyyyyyyyyyy",
"yyyyyyyyyyyttttttttttttttttttttttttttttttttttttyyyyyyyyyyyyyyyyy",
"yyyyyyyyyyyytttttttttttttttttttttttttttttttttttyyyyyyyyyyyyyyyyy",
"yyyyyyyyyyyyttttttyyyyyyyyyyyyyyyyyyyyyyyttttttyyyyyyyyyyyyyyyyy",
"yyyyyyyyyyyyttttttyyyyyyyyyyyyyyyyyyyyyyyt+#<.7yyyyyyyyyyyyyyyyy",
"yyyyyyyyyyyyttttttyyyyyyyyyyyyyyyyyyyyyyyt;;4&0yyyyyyyyyyyyyyyyy",
"yyyyyyyyyyyyttttttyyyyyyyyyyyyyyyyyyyyyyyt&&2X8yyyyyyyyyyyyyyyyy",
"yyyyyyyyyyyyttttttyyyyyyyyyyyyyyyyyyyyyyyt*-3+9yyyyyyyyyyyyyyyyy",
"yyyyyyyyyyyyttttttyyyyyyyyyyyyyyyyyyyyyyyt<<5-qyyyyyyyyyyyyyyyyy",
"yyyyyyyyyyyyttttttyyyyyyyyyyyyyyyyyyyyyyytoO> 6yyyyyyyyyyyyyyyyy",
"yyyyyyyyyyyyttttttyyyyyyyyyyyyyyyyyyyyyyyteetwtyyyyyyyyyyyyyyyyy",
"yyyyyyyyyyyyttttttyyyyyyyyyyyyyyyyyyyyyyyttttttyyyyyyyyyyyyyyyyy",
"yyyyyyyyyyyyttttttyyyyyyyyyyyyyyyyyyyyyyyttttttyyyyyyyyyyyyyyyyy",
"yyyyyyyyyyyyttttttyyyyyyyyyyyyyyyyyyyyyyyttttttyyyyyyyyyyyyyyyyy",
"yyyyyyyyyyyyttttttyyyyyyyyyyyyyyyyyyyyyyyttttttyyyyyyyyyyyyyyyyy",
"yyyyyyyyyyyyttttttyyyyyyyyyyyyyyyyyyyyyyyttttttyyyyyyyyyyyyyyyyy",
"yyyyyyyyyyyytttttttyyyyyyyyyyyyyyyyyyyyytttttttyyyyyyyyyyyyyyyyy",
"yyyyyyyyyyyyyttttttyyyyyyyyyyyyyyyyyyyyyttttttyyyyyyyyyyyyyyyyyy",
"yyyyyyyyyyyyytttttttyyyyyyyyyyyyyyyyyyytttttttyyyyyyyyyyyyyyyyyy",
"yyyyyyyyyyyyyytttttttyyyyyyyyyyyyyyyyytttttttyyyyyyyyyyyyyyyyyyy",
"yyyyyyyyyyyyyyyttttttttyyyyyyyyyyyyyttttttttyyyyyyyyyyyyyyyyyyyy",
"yyyyyyyyyyyyyyyytttttttttttyyyyytttttttttttyyyyyyyyyyyyyyyyyyyyy",
"yyyyyyyyyyyyyyyyyytttttttttttttttttttttttyyyyyyyyyyyyyyyyyyyyyyy",
"yyyyyyyyyyyyyyyyyyyyytttttttttttttttttyyyyyyyyyyyyyyyyyyyyyyyyyy",
"yyyyyyyyyyyyyyyyyyyyyyyyyyttttttyyyyyyyyyyyyyyyyyyyyyyyyyyyyyyyy",
"yyyyyyyyyyyyyyyyyyyyyyyyyyttttttyyyyyyyyyyyyyyyyyyyyyyyyyyyyyyyy",
"yyyyyyyyyyyyyyyyyyyyyyyyytttyytttyyyyyyyyyyyyyyyyyyyyyyyyyyyyyyy",
"yyyyyyyyyyyyyyyyyyyyyyyytttyyyttttyyyyyyyyyyyyyyyyyyyyyyyyyyyyyy",
"yyyyyyyyyyyyyyyyyyyyyyyytttyyyyttttyyyyyyyyyyyyyyyyyyyyyyyyyyyyy",
"yyyyyyyyyyyyyyyyyyyyyyytttyyyyyytttyyyyyyyyyyyyyyyyyyyyyyyyyyyyy",
"yyyyyyyyyyyyyyyyyyyyyyttttyyyyyyttttyyyyyyyyyyyyyyyyyyyyyyyyyyyy",
"yyyyyyyyyyyyyyyyyyyyyttttyyyyyyyyttttyyyyyyyyyyyyyyyyyyyyyyyyyyy",
"yyyyyyyyyyyyyyyyyyyyytttyyyyyyyyyytttyyyyyyyyyyyyyyyyyyyyyyyyyyy",
"yyyyyyyyyyyyyyyyyyyyttttyyyyyyyyyyttttyyyyyyyyyyyyyyyyyyyyyyyyyy",
"yyyyyyyyyyyyyyyyyyyyyyyyyyyyyyyyyyyyyyyyyyyyyyyyyyyyyyyyyyyyyyyy",
"yyyyyyyyyyyyyyyyyyyyyyyyyyyyyyyyyyyyyyyyyyyyyyyyyyyyyyyyyyyyyyyy"
};
